<svg xmlns="http://www.w3.org/2000/svg" viewBox="0 0 1200 700">
  <defs>
    <linearGradient id="bg" x1="0" y1="0" x2="1" y2="1">
      <stop offset="0%" stop-color="#fbfcfd"/>
      <stop offset="100%" stop-color="#f6f6f6"/>
    </linearGradient>
    <linearGradient id="panel" x1="0" y1="0" x2="0" y2="1">
      <stop offset="0%" stop-color="#eceff3"/>
      <stop offset="100%" stop-color="#f1f3f5"/>
    </linearGradient>
  </defs>

  <rect width="1200" height="700" fill="url(#bg)"/>
  <rect x="36" y="28" width="1128" height="644" rx="28" fill="#f4f6f8" stroke="#d8dee7"/>

  <rect x="36" y="28" width="1128" height="58" rx="28" fill="#eceff3"/>
  <circle cx="66" cy="57" r="6" fill="#abb6c8"/>
  <circle cx="86" cy="57" r="6" fill="#abb6c8"/>
  <circle cx="106" cy="57" r="6" fill="#abb6c8"/>
  <rect x="132" y="48" width="286" height="18" rx="9" fill="#d8dee7"/>
  <rect x="1018" y="46" width="110" height="22" rx="8" fill="#e2e6ed" stroke="#bec6d3"/>

  <rect x="72" y="108" width="1056" height="520" rx="20" fill="url(#panel)" stroke="#c7cfdb"/>
  <text x="98" y="156" fill="#111827" font-family="Inter,Arial,sans-serif" font-size="36" font-weight="700">My Appointments</text>
  <text x="98" y="184" fill="#6b7280" font-family="Inter,Arial,sans-serif" font-size="18">Manage all your booked services</text>

  <rect x="98" y="228" width="1004" height="334" rx="16" fill="#e5e9ef" stroke="#b6c0ce"/>
  <rect x="98" y="228" width="1004" height="58" rx="16" fill="#dde2ea"/>

  <text x="130" y="265" fill="#6b7280" font-family="Inter,Arial,sans-serif" font-size="18" font-weight="700">SERVICE</text>
  <text x="500" y="265" fill="#6b7280" font-family="Inter,Arial,sans-serif" font-size="18" font-weight="700">DATE</text>
  <text x="670" y="265" fill="#6b7280" font-family="Inter,Arial,sans-serif" font-size="18" font-weight="700">TIME</text>
  <text x="865" y="265" fill="#6b7280" font-family="Inter,Arial,sans-serif" font-size="18" font-weight="700">STATUS</text>

  <g fill="#111827" font-family="Inter,Arial,sans-serif" font-size="19" font-weight="700">
    <text x="130" y="342">Haircut &amp; Styling</text>
    <text x="130" y="422">Standard Cleaning</text>
    <text x="130" y="502">Manicure &amp; Pedicure</text>
  </g>

  <g fill="#6b7280" font-family="Inter,Arial,sans-serif" font-size="16">
    <text x="500" y="342">2026-03-18</text><text x="500" y="422">2026-03-18</text><text x="500" y="502">2026-03-17</text>
    <text x="670" y="342">10:45 - 11:30</text><text x="670" y="422">15:00 - 16:00</text><text x="670" y="502">13:00 - 14:30</text>
  </g>

  <g>
    <rect x="845" y="312" width="220" height="46" rx="23" fill="#cad2dd" stroke="#a8b4c6"/>
    <rect x="845" y="392" width="220" height="46" rx="23" fill="#cad2dd" stroke="#a8b4c6"/>
    <rect x="845" y="472" width="220" height="46" rx="23" fill="#cad2dd" stroke="#a8b4c6"/>
    <text x="918" y="341" fill="#e7edf6" font-family="Inter,Arial,sans-serif" font-size="14" font-weight="700">CONFIRMED</text>
    <text x="918" y="421" fill="#e7edf6" font-family="Inter,Arial,sans-serif" font-size="14" font-weight="700">CONFIRMED</text>
    <text x="918" y="501" fill="#e7edf6" font-family="Inter,Arial,sans-serif" font-size="14" font-weight="700">CONFIRMED</text>
  </g>

  <line x1="98" y1="318" x2="1102" y2="318" stroke="#b8c1cf"/>
  <line x1="98" y1="398" x2="1102" y2="398" stroke="#b8c1cf"/>
  <line x1="98" y1="478" x2="1102" y2="478" stroke="#b8c1cf"/>
  <rect x="72" y="590" width="1056" height="1" fill="#b6c0ce" opacity=".6"/>
</svg>
