<svg xmlns="http://www.w3.org/2000/svg" viewBox="0 0 1200 700">
  <defs>
    <linearGradient id="bg" x1="0" y1="0" x2="1" y2="1">
      <stop offset="0%" stop-color="#1a1a1a"/>
      <stop offset="100%" stop-color="#111111"/>
    </linearGradient>
    <linearGradient id="panel" x1="0" y1="0" x2="0" y2="1">
      <stop offset="0%" stop-color="#1f1f1f"/>
      <stop offset="100%" stop-color="#171717"/>
    </linearGradient>
  </defs>

  <rect width="1200" height="700" fill="url(#bg)"/>
  <rect x="36" y="28" width="1128" height="644" rx="28" fill="#1b1b1b" stroke="#303030"/>

  <rect x="36" y="28" width="1128" height="58" rx="28" fill="#1f1f1f"/>
  <circle cx="66" cy="57" r="6" fill="#5a5a5a"/>
  <circle cx="86" cy="57" r="6" fill="#5a5a5a"/>
  <circle cx="106" cy="57" r="6" fill="#5a5a5a"/>
  <rect x="132" y="48" width="286" height="18" rx="9" fill="#303030"/>
  <rect x="1018" y="46" width="110" height="22" rx="8" fill="#2b2b2b" stroke="#454545"/>

  <rect x="72" y="108" width="1056" height="520" rx="20" fill="url(#panel)" stroke="#3a3a3a"/>
  <text x="98" y="156" fill="#f3f4f6" font-family="Inter,Arial,sans-serif" font-size="36" font-weight="700">Book Appointment</text>
  <text x="98" y="184" fill="#a3a3a3" font-family="Inter,Arial,sans-serif" font-size="18">Select a date and time slot</text>

  <rect x="98" y="228" width="1004" height="334" rx="16" fill="#242424" stroke="#4b4b4b"/>
  <rect x="98" y="228" width="1004" height="74" rx="16" fill="#2e2e2e"/>
  <text x="130" y="275" fill="#f0f4fb" font-family="Inter,Arial,sans-serif" font-size="30" font-weight="700">Select Date</text>

  <rect x="880" y="243" width="190" height="44" rx="13" fill="#383838" stroke="#5c5c5c"/>

  <g>
    <rect x="130" y="328" width="286" height="84" rx="14" fill="#343434" stroke="#5c5c5c"/>
    <rect x="456" y="328" width="286" height="84" rx="14" fill="#343434" stroke="#5c5c5c"/>
    <rect x="782" y="328" width="286" height="84" rx="14" fill="#3f3f46" stroke="#71717a"/>

    <rect x="130" y="434" width="286" height="84" rx="14" fill="#343434" stroke="#5c5c5c"/>
    <rect x="456" y="434" width="286" height="84" rx="14" fill="#343434" stroke="#5c5c5c"/>
    <rect x="782" y="434" width="286" height="84" rx="14" fill="#343434" stroke="#5c5c5c"/>
  </g>

  <g fill="#eef3fb" font-family="Inter,Arial,sans-serif" font-size="24" font-weight="700">
    <text x="160" y="381">10:00</text>
    <text x="486" y="381">10:45</text>
    <text x="812" y="381">11:30</text>
    <text x="160" y="487">12:15</text>
    <text x="486" y="487">13:00</text>
    <text x="812" y="487">13:45</text>
  </g>

  <rect x="72" y="590" width="1056" height="1" fill="#4b4b4b" opacity=".6"/>
</svg>
