<svg xmlns="http://www.w3.org/2000/svg" viewBox="0 0 1200 700">
  <defs>
    <linearGradient id="bg" x1="0" y1="0" x2="1" y2="1">
      <stop offset="0%" stop-color="#fbfcfd"/>
      <stop offset="100%" stop-color="#f6f6f6"/>
    </linearGradient>
    <linearGradient id="panel" x1="0" y1="0" x2="0" y2="1">
      <stop offset="0%" stop-color="#eceff3"/>
      <stop offset="100%" stop-color="#f1f3f5"/>
    </linearGradient>
  </defs>

  <rect width="1200" height="700" fill="url(#bg)"/>
  <rect x="36" y="28" width="1128" height="644" rx="28" fill="#f4f6f8" stroke="#d8dee7"/>

  <rect x="36" y="28" width="1128" height="58" rx="28" fill="#eceff3"/>
  <circle cx="66" cy="57" r="6" fill="#abb6c8"/>
  <circle cx="86" cy="57" r="6" fill="#abb6c8"/>
  <circle cx="106" cy="57" r="6" fill="#abb6c8"/>
  <rect x="132" y="48" width="286" height="18" rx="9" fill="#d8dee7"/>
  <rect x="1018" y="46" width="110" height="22" rx="8" fill="#e2e6ed" stroke="#bec6d3"/>

  <rect x="72" y="108" width="1056" height="520" rx="20" fill="url(#panel)" stroke="#c7cfdb"/>
  <text x="98" y="156" fill="#111827" font-family="Inter,Arial,sans-serif" font-size="36" font-weight="700">Book Appointment</text>
  <text x="98" y="184" fill="#6b7280" font-family="Inter,Arial,sans-serif" font-size="18">Select a date and time slot</text>

  <rect x="98" y="228" width="1004" height="334" rx="16" fill="#e5e9ef" stroke="#b6c0ce"/>
  <rect x="98" y="228" width="1004" height="74" rx="16" fill="#dde2ea"/>
  <text x="130" y="275" fill="#111827" font-family="Inter,Arial,sans-serif" font-size="30" font-weight="700">Select Date</text>

  <rect x="880" y="243" width="190" height="44" rx="13" fill="#cad2dd" stroke="#a8b4c6"/>

  <g>
    <rect x="130" y="328" width="286" height="84" rx="14" fill="#d2d9e3" stroke="#a8b4c6"/>
    <rect x="456" y="328" width="286" height="84" rx="14" fill="#d2d9e3" stroke="#a8b4c6"/>
    <rect x="782" y="328" width="286" height="84" rx="14" fill="#c0c8d6" stroke="#909eb4"/>

    <rect x="130" y="434" width="286" height="84" rx="14" fill="#d2d9e3" stroke="#a8b4c6"/>
    <rect x="456" y="434" width="286" height="84" rx="14" fill="#d2d9e3" stroke="#a8b4c6"/>
    <rect x="782" y="434" width="286" height="84" rx="14" fill="#d2d9e3" stroke="#a8b4c6"/>
  </g>

  <g fill="#111827" font-family="Inter,Arial,sans-serif" font-size="24" font-weight="700">
    <text x="160" y="381">10:00</text>
    <text x="486" y="381">10:45</text>
    <text x="812" y="381">11:30</text>
    <text x="160" y="487">12:15</text>
    <text x="486" y="487">13:00</text>
    <text x="812" y="487">13:45</text>
  </g>

  <rect x="72" y="590" width="1056" height="1" fill="#b6c0ce" opacity=".6"/>
</svg>
